<?xml version="1.0" encoding="UTF-8"?>
<svg version="1.1" xmlns="http://www.w3.org/2000/svg" width="294" height="52">
<path d="M0 0 C1.50065323 0.89565719 2.99409231 1.80350066 4.48046875 2.72265625 C5.62418945 3.40618164 5.62418945 3.40618164 6.79101562 4.10351562 C12.33319964 7.45038714 12.33319964 7.45038714 14.66796875 9.78515625 C14.86328125 12.82421875 14.86328125 12.82421875 14.79296875 16.41015625 C14.77492187 17.59867188 14.756875 18.7871875 14.73828125 20.01171875 C14.71507812 20.92695313 14.691875 21.8421875 14.66796875 22.78515625 C9.91796875 21.91015625 9.91796875 21.91015625 7.66796875 20.78515625 C7.66796875 18.14515625 7.66796875 15.50515625 7.66796875 12.78515625 C7.02859375 12.55828125 6.38921875 12.33140625 5.73046875 12.09765625 C3.02438284 10.93790515 0.73657262 9.62163833 -1.76953125 8.09765625 C-4.5582904 6.55649988 -6.0567281 5.80272879 -9.26953125 5.59765625 C-13.20431959 7.12339051 -16.61738299 9.22648123 -20.16015625 11.5078125 C-22.33203125 12.78515625 -22.33203125 12.78515625 -24.33203125 12.78515625 C-24.33203125 19.38515625 -24.33203125 25.98515625 -24.33203125 32.78515625 C-22.68203125 33.44515625 -21.03203125 34.10515625 -19.33203125 34.78515625 C-17.99153073 35.43729164 -16.65541757 36.09895594 -15.33203125 36.78515625 C-15.33203125 39.42515625 -15.33203125 42.06515625 -15.33203125 44.78515625 C-21.49027941 43.32662379 -26.95976101 40.35120735 -31.33203125 35.78515625 C-33.04811258 31.37887159 -33.23493212 27.29654734 -33.20703125 22.59765625 C-33.20840088 21.39270508 -33.20977051 20.18775391 -33.21118164 18.94628906 C-32.90280723 14.05877048 -32.49089263 10.27921806 -29.43798828 6.34326172 C-20.63403904 -1.25807208 -10.78163027 -5.84275034 0 0 Z " fill="#000000" transform="translate(31.33203125,3.21484375)"/>
<path d="M0 0 C2.31 0 4.62 0 7 0 C7 5.94 7 11.88 7 18 C9.5390625 17.93489583 12.078125 17.86979167 14.6171875 17.8046875 C17 18 17 18 19 20 C19.20681396 19.42967041 19.41362793 18.85934082 19.62670898 18.27172852 C20.56075855 15.70092825 21.4990701 13.13170435 22.4375 10.5625 C22.76298828 9.66466797 23.08847656 8.76683594 23.42382812 7.84179688 C23.73642578 6.98779297 24.04902344 6.13378906 24.37109375 5.25390625 C24.65911865 4.46314697 24.94714355 3.6723877 25.24389648 2.85766602 C26 1 26 1 27 0 C29.67058851 -0.14115161 32.32432238 -0.04247107 35 0 C38.41128405 7.88509919 41.40097348 15.81088851 44 24 C43.505 24.495 43.505 24.495 43 25 C40.66055264 24.71269945 38.3260857 24.38063221 36 24 C35.505 22.515 35.505 22.515 35 21 C33.741875 20.9175 32.48375 20.835 31.1875 20.75 C30.47980469 20.70359375 29.77210937 20.6571875 29.04296875 20.609375 C28.03169922 20.80273438 28.03169922 20.80273438 27 21 C26.57195068 21.6592749 26.14390137 22.3185498 25.70288086 22.99780273 C24 25 24 25 21.56396484 25.4699707 C20.15171631 25.44809692 20.15171631 25.44809692 18.7109375 25.42578125 C17.17566406 25.41321289 17.17566406 25.41321289 15.609375 25.40039062 C14.00835937 25.35688477 14.00835937 25.35688477 12.375 25.3125 C11.29992187 25.30283203 10.22484375 25.29316406 9.1171875 25.28320312 C1.16777607 25.16777607 1.16777607 25.16777607 0 24 C-0.08726223 22.21928754 -0.10699041 20.4351686 -0.09765625 18.65234375 C-0.09443359 17.57275391 -0.09121094 16.49316406 -0.08789062 15.38085938 C-0.07951172 14.24455078 -0.07113281 13.10824219 -0.0625 11.9375 C-0.05798828 10.79732422 -0.05347656 9.65714844 -0.04882812 8.48242188 C-0.03699747 5.65489649 -0.0205141 2.8274736 0 0 Z M30 8 C29.34 10.31 28.68 12.62 28 15 C29.98 15 31.96 15 34 15 C33.01 12.69 32.02 10.38 31 8 C30.67 8 30.34 8 30 8 Z " fill="#000000" transform="translate(58,12)"/>
<path d="M0 0 C0.72509766 -0.020625 1.45019531 -0.04125 2.19726562 -0.0625 C5.42405403 -0.08611785 7.79618302 0.04668664 10.68359375 1.546875 C12.1875 3.25 12.1875 3.25 12.4375 6.75 C12.355 7.905 12.2725 9.06 12.1875 10.25 C12.08344618 13.26148928 12.08344618 13.26148928 12.8125 16.1875 C13.1875 19.25 13.1875 19.25 12.625 21.5 C10.51494248 24.06876567 8.37020067 24.38910556 5.1875 25.25 C1.79296875 25.48046875 1.79296875 25.48046875 -1.625 25.4375 C-2.76582031 25.43105469 -3.90664062 25.42460938 -5.08203125 25.41796875 C-7.8125 25.25 -7.8125 25.25 -8.8125 24.25 C-8.91182153 22.55441274 -8.94330007 20.85474253 -8.9453125 19.15625 C-8.94724609 17.61130859 -8.94724609 17.61130859 -8.94921875 16.03515625 C-8.94535156 14.95105469 -8.94148437 13.86695313 -8.9375 12.75 C-8.94136719 11.66589844 -8.94523438 10.58179688 -8.94921875 9.46484375 C-8.94792969 8.43488281 -8.94664062 7.40492187 -8.9453125 6.34375 C-8.94418457 5.39177734 -8.94305664 4.43980469 -8.94189453 3.45898438 C-8.65246517 -1.48206635 -3.88684404 0.02720451 0 0 Z M-0.8125 5.25 C-0.8125 6.57 -0.8125 7.89 -0.8125 9.25 C0.8375 9.25 2.4875 9.25 4.1875 9.25 C4.1875 7.93 4.1875 6.61 4.1875 5.25 C2.5375 5.25 0.8875 5.25 -0.8125 5.25 Z M-0.8125 14.25 C-0.8125 15.9 -0.8125 17.55 -0.8125 19.25 C1.1675 19.25 3.1475 19.25 5.1875 19.25 C5.1875 17.93 5.1875 16.61 5.1875 15.25 C2.2175 14.755 2.2175 14.755 -0.8125 14.25 Z " fill="#000000" transform="translate(140.8125,11.75)"/>
<path d="M0 0 C2.96928079 1.76731371 5.87112253 3.62946644 8.77294922 5.50488281 C13.16652533 8.2386635 15.79045922 9.43485127 21.09912109 9.05957031 C22.08912109 9.71957031 23.07912109 10.37957031 24.09912109 11.05957031 C24.50630379 14.24916813 24.61395829 16.21957279 22.91162109 18.99707031 C21.09912109 20.05957031 21.09912109 20.05957031 18.81787109 19.81738281 C15.74968988 18.96217138 13.48161786 17.68593496 10.78662109 15.99707031 C9.90361328 15.44921875 9.02060547 14.90136719 8.11083984 14.33691406 C7.44697266 13.91539063 6.78310547 13.49386719 6.09912109 13.05957031 C6.07785156 14.48849609 6.07785156 14.48849609 6.05615234 15.94628906 C5.61808534 27.46626718 5.61808534 27.46626718 2.53662109 30.43457031 C1.33005859 31.23894531 1.33005859 31.23894531 0.09912109 32.05957031 C-0.89087891 31.39957031 -1.88087891 30.73957031 -2.90087891 30.05957031 C-3.33325195 27.72119141 -3.33325195 27.72119141 -3.41259766 24.83300781 C-3.44804687 23.80175781 -3.48349609 22.77050781 -3.52001953 21.70800781 C-3.54257812 20.62777344 -3.56513672 19.54753906 -3.58837891 18.43457031 C-3.62253906 17.34660156 -3.65669922 16.25863281 -3.69189453 15.13769531 C-3.77456225 12.44508968 -3.84364978 9.7528174 -3.90087891 7.05957031 C-4.68720703 7.2490625 -5.47353516 7.43855469 -6.28369141 7.63378906 C-8.90087891 8.05957031 -8.90087891 8.05957031 -10.77587891 6.87207031 C-11.90087891 5.05957031 -11.90087891 5.05957031 -11.83837891 2.99707031 C-10.90087891 1.05957031 -10.90087891 1.05957031 -9.15087891 -0.19042969 C-5.74727969 -1.32496276 -3.32124173 -1.64313167 0 0 Z " fill="#000000" transform="translate(21.90087890625,19.9404296875)"/>
<path d="M0 0 C2.8203125 -0.2421875 2.8203125 -0.2421875 6 0 C7.6796875 1.6796875 7.6796875 1.6796875 8.875 3.875 C9.28492187 4.59429688 9.69484375 5.31359375 10.1171875 6.0546875 C11 8 11 8 11 10 C11.66 10 12.32 10 13 10 C13.268125 9.278125 13.53625 8.55625 13.8125 7.8125 C16.11764706 2.35294118 16.11764706 2.35294118 18 0 C19.98 0 21.96 0 24 0 C24 8.25 24 16.5 24 25 C21.69 24.67 19.38 24.34 17 24 C16.67 21.36 16.34 18.72 16 16 C15.5875 16.515625 15.175 17.03125 14.75 17.5625 C13 19 13 19 10.9375 18.9375 C9 18 9 18 7 14 C6.67 17.63 6.34 21.26 6 25 C4.35 25 2.7 25 1 25 C0 24 0 24 -0.11352539 21.68334961 C-0.10828857 20.68311768 -0.10305176 19.68288574 -0.09765625 18.65234375 C-0.09443359 17.57275391 -0.09121094 16.49316406 -0.08789062 15.38085938 C-0.07951172 14.24455078 -0.07113281 13.10824219 -0.0625 11.9375 C-0.05798828 10.79732422 -0.05347656 9.65714844 -0.04882812 8.48242188 C-0.03699747 5.65489649 -0.0205141 2.8274736 0 0 Z " fill="#000000" transform="translate(104,12)"/>
<path d="M0 0 C2.39652528 -0.08139142 4.79025436 -0.14067009 7.1875 -0.1875 C7.86103516 -0.21263672 8.53457031 -0.23777344 9.22851562 -0.26367188 C13.7025108 -0.32914498 16.45139572 0.24585936 20 3 C22.41726035 7.02876725 22.59261502 11.41172311 22 16 C20.43564712 20.0226217 19.61276337 21.59149109 16 24 C11.20560777 25.45284613 5.96704517 25.31273988 1 25 C0 24 0 24 -0.11352539 21.68334961 C-0.10828857 20.68311768 -0.10305176 19.68288574 -0.09765625 18.65234375 C-0.09443359 17.57275391 -0.09121094 16.49316406 -0.08789062 15.38085938 C-0.07951172 14.24455078 -0.07113281 13.10824219 -0.0625 11.9375 C-0.05798828 10.79732422 -0.05347656 9.65714844 -0.04882812 8.48242188 C-0.03699747 5.65489649 -0.0205141 2.8274736 0 0 Z M7 6 C7 10.29 7 14.58 7 19 C10.465 18.505 10.465 18.505 14 18 C14.02687279 16.18757948 14.04633715 14.37504767 14.0625 12.5625 C14.07410156 11.55316406 14.08570313 10.54382813 14.09765625 9.50390625 C14.28612676 7.05978933 14.28612676 7.05978933 13 6 C11.02 6 9.04 6 7 6 Z " fill="#000000" transform="translate(157,12)"/>
<path d="M0 0 C0.74886475 0.00523682 1.49772949 0.01047363 2.26928711 0.01586914 C3.07817383 0.0190918 3.88706055 0.02231445 4.72045898 0.02563477 C5.5705957 0.03401367 6.42073242 0.04239258 7.29663086 0.05102539 C8.15063477 0.05553711 9.00463867 0.06004883 9.88452148 0.06469727 C12.00108749 0.07652166 14.11761771 0.0944577 16.23413086 0.11352539 C16.23413086 2.09352539 16.23413086 4.07352539 16.23413086 6.11352539 C12.27413086 6.11352539 8.31413086 6.11352539 4.23413086 6.11352539 C4.23413086 7.43352539 4.23413086 8.75352539 4.23413086 10.11352539 C7.86413086 10.11352539 11.49413086 10.11352539 15.23413086 10.11352539 C15.56413086 11.43352539 15.89413086 12.75352539 16.23413086 14.11352539 C15.23413086 15.11352539 15.23413086 15.11352539 12.73022461 15.21118164 C11.2162207 15.1937793 11.2162207 15.1937793 9.67163086 15.17602539 C8.6597168 15.16700195 7.64780273 15.15797852 6.60522461 15.14868164 C5.4315332 15.1312793 5.4315332 15.1312793 4.23413086 15.11352539 C4.23413086 16.43352539 4.23413086 17.75352539 4.23413086 19.11352539 C8.19413086 19.11352539 12.15413086 19.11352539 16.23413086 19.11352539 C16.56413086 20.76352539 16.89413086 22.41352539 17.23413086 24.11352539 C15.71203496 25.63562129 14.35203004 25.2431206 12.23413086 25.24633789 C11.42975586 25.24762695 10.62538086 25.24891602 9.79663086 25.25024414 C8.95100586 25.24637695 8.10538086 25.24250977 7.23413086 25.23852539 C6.38850586 25.24239258 5.54288086 25.24625977 4.67163086 25.25024414 C3.86725586 25.24895508 3.06288086 25.24766602 2.23413086 25.24633789 C1.49163086 25.24520996 0.74913086 25.24408203 -0.01586914 25.24291992 C-1.76586914 25.11352539 -1.76586914 25.11352539 -2.76586914 24.11352539 C-2.86519068 22.41793813 -2.89666921 20.71826792 -2.89868164 19.01977539 C-2.90061523 17.47483398 -2.90061523 17.47483398 -2.90258789 15.89868164 C-2.8987207 14.81458008 -2.89485352 13.73047852 -2.89086914 12.61352539 C-2.89473633 11.52942383 -2.89860352 10.44532227 -2.90258789 9.32836914 C-2.90129883 8.2984082 -2.90000977 7.26844727 -2.89868164 6.20727539 C-2.89755371 5.25530273 -2.89642578 4.30333008 -2.89526367 3.32250977 C-2.73845052 0.64544301 -2.68687226 0.17273546 0 0 Z " fill="#000000" transform="translate(229.765869140625,11.886474609375)"/>
<path d="M0 0 C3.125 1.75 3.125 1.75 5 4 C5 5.32 5 6.64 5 8 C0.86425173 8.0984702 -2.93631321 7.77403558 -7 7 C-3.96672162 9.02218559 -1.25172269 10.04968906 2.16015625 11.21875 C4 12 4 12 6 14 C6.36599043 17.36711191 6.37424895 19.34060899 4.6875 22.3125 C1.87596006 25.12403994 -1.07633936 25.20281223 -4.875 25.3125 C-8.52641773 25.28051678 -9.8292231 25.10107204 -13.0625 23.1875 C-15 21 -15 21 -16 18 C-15 17 -15 17 -12 16.875 C-9 17 -9 17 -8 18 C-6.00041636 18.04080783 -3.99954746 18.04254356 -2 18 C-4.64479387 16.23680408 -6.68439143 15.37092751 -9.625 14.3125 C-13.30240719 12.70213215 -13.80767414 12.48081464 -15.375 8.5625 C-15 5 -15 5 -13.1875 2.0625 C-8.76635859 -0.79823856 -5.13184494 -0.9170018 0 0 Z " fill="#000000" transform="translate(264,12)"/>
<path d="M0 0 C2.97 0 5.94 0 9 0 C10.36915412 3.59865208 11.71770631 7.20468119 13.0625 10.8125 C13.64741211 12.34874023 13.64741211 12.34874023 14.24414062 13.91601562 C14.60830078 14.89892578 14.97246094 15.88183594 15.34765625 16.89453125 C15.68804932 17.80050049 16.02844238 18.70646973 16.37915039 19.63989258 C17 22 17 22 16 25 C13.625 25.125 13.625 25.125 11 25 C10.34 24.34 9.68 23.68 9 23 C9 22.01 9 21.02 9 20 C6.03 20 3.06 20 0 20 C-0.99 22.475 -0.99 22.475 -2 25 C-3.65 25 -5.3 25 -7 25 C-8.21205531 21.36383407 -7.66898648 20.41130247 -6.34765625 16.89453125 C-5.98349609 15.91162109 -5.61933594 14.92871094 -5.24414062 13.91601562 C-4.85419922 12.89185547 -4.46425781 11.86769531 -4.0625 10.8125 C-3.67642578 9.77673828 -3.29035156 8.74097656 -2.89257812 7.67382812 C-1.93657556 5.11268546 -0.97210743 2.55506401 0 0 Z M4 7 C3.34 9.64 2.68 12.28 2 15 C3.65 15 5.3 15 7 15 C6.34 12.36 5.68 9.72 5 7 C4.67 7 4.34 7 4 7 Z " fill="#000000" transform="translate(188,12)"/>
<path d="M0 0 C0.83265381 0.00523682 1.66530762 0.01047363 2.52319336 0.01586914 C3.42231445 0.0190918 4.32143555 0.02231445 5.24780273 0.02563477 C6.66609375 0.03820313 6.66609375 0.03820313 8.11303711 0.05102539 C9.06243164 0.05553711 10.01182617 0.06004883 10.98999023 0.06469727 C13.34356776 0.07652429 15.69702188 0.09300514 18.05053711 0.11352539 C18.43272478 1.76967196 18.76448813 3.43809563 19.05053711 5.11352539 C18.05053711 6.11352539 18.05053711 6.11352539 14.98803711 6.17602539 C14.01866211 6.15540039 13.04928711 6.13477539 12.05053711 6.11352539 C12.06213867 7.40129883 12.07374023 8.68907227 12.08569336 10.01586914 C12.09506981 11.69425311 12.10417016 13.37263865 12.11303711 15.05102539 C12.12141602 15.90116211 12.12979492 16.75129883 12.13842773 17.62719727 C12.14165039 18.43608398 12.14487305 19.2449707 12.14819336 20.07836914 C12.15343018 20.82723389 12.15866699 21.57609863 12.1640625 22.34765625 C12.05053711 24.11352539 12.05053711 24.11352539 11.05053711 25.11352539 C8.05053711 25.23852539 8.05053711 25.23852539 5.05053711 25.11352539 C4.05053711 24.11352539 4.05053711 24.11352539 3.93701172 22.34765625 C3.94486694 21.22435913 3.94486694 21.22435913 3.95288086 20.07836914 C3.95610352 19.26948242 3.95932617 18.4605957 3.96264648 17.62719727 C3.97102539 16.77706055 3.9794043 15.92692383 3.98803711 15.05102539 C3.99254883 14.19702148 3.99706055 13.34301758 4.00170898 12.46313477 C4.01353338 10.34656876 4.03146942 8.23003854 4.05053711 6.11352539 C1.74053711 6.11352539 -0.56946289 6.11352539 -2.94946289 6.11352539 C-2.99218389 4.44740634 -2.99010121 2.77969654 -2.94946289 1.11352539 C-1.94946289 0.11352539 -1.94946289 0.11352539 0 0 Z " fill="#000000" transform="translate(273.949462890625,11.886474609375)"/>
<path d="M0 0 C6.93 0 13.86 0 21 0 C21 1.98 21 3.96 21 6 C18.69 6 16.38 6 14 6 C14 12.27 14 18.54 14 25 C11.69 25 9.38 25 7 25 C7 18.73 7 12.46 7 6 C4.69 6 2.38 6 0 6 C0 4.02 0 2.04 0 0 Z " fill="#000000" transform="translate(204,12)"/>
</svg>
