<?xml version="1.0" encoding="UTF-8"?>
<svg version="1.1" xmlns="http://www.w3.org/2000/svg" width="256" height="64">
<path d="M0 0 C5.66141948 5.91875673 8.05333999 11.66373479 8.375 19.875 C8.04623761 27.63885032 6.21729753 33.45231843 0.625 38.97265625 C-6.06807244 44.4786128 -11.79858651 46.36747106 -20.4375 46.19140625 C-27.41986905 45.40588973 -33.43358622 41.91034168 -38.25 36.875 C-43.61741762 29.42025331 -44.49916203 21.86690188 -43.25 12.875 C-40.98357644 4.90456308 -36.20008588 0.13954286 -29.25 -4.125 C-19.0566271 -9.22168645 -8.90071355 -5.81969732 0 0 Z " fill="#6C50E8" transform="translate(43.25,12.125)"/>
<path d="M0 0 C0.66 0.66 1.32 1.32 2 2 C2.680625 1.484375 3.36125 0.96875 4.0625 0.4375 C7.90525323 -1.44299626 9.91132242 -1.11509388 14 0 C16.86942113 2.26533247 17.83907612 3.51722837 19 7 C19.07029121 9.57265818 19.09370832 12.11641431 19.0625 14.6875 C19.05798828 15.38939453 19.05347656 16.09128906 19.04882812 16.81445312 C19.03706927 18.54300538 19.01913454 20.27151365 19 22 C17.02 22 15.04 22 13 22 C12.96261719 21.09636719 12.92523438 20.19273438 12.88671875 19.26171875 C12.82097656 18.08222656 12.75523437 16.90273438 12.6875 15.6875 C12.62949219 14.51574219 12.57148438 13.34398437 12.51171875 12.13671875 C12.22610093 9.05448926 12.22610093 9.05448926 10.70703125 7.01953125 C8.73152243 5.56726565 8.73152243 5.56726565 5 7 C4.67 11.95 4.34 16.9 4 22 C2.02 22 0.04 22 -2 22 C-2.02578125 21.01257813 -2.0515625 20.02515625 -2.078125 19.0078125 C-2.13484375 17.72648437 -2.1915625 16.44515625 -2.25 15.125 C-2.29640625 13.84882812 -2.3428125 12.57265625 -2.390625 11.2578125 C-2.62555056 7.90811895 -2.62555056 7.90811895 -5.046875 6.5546875 C-5.69140625 6.37164062 -6.3359375 6.18859375 -7 6 C-9.57619276 7.91315119 -9.98395232 8.9016314 -10.51171875 12.13671875 C-10.56972656 13.30847656 -10.62773438 14.48023438 -10.6875 15.6875 C-10.75324219 16.86699219 -10.81898437 18.04648437 -10.88671875 19.26171875 C-10.92410156 20.16535156 -10.96148437 21.06898437 -11 22 C-12.98 22 -14.96 22 -17 22 C-17 14.74 -17 7.48 -17 0 C-14.69 0 -12.38 0 -10 0 C-6.25976024 -1.24674659 -3.83399823 -0.76679965 0 0 Z " fill="#081426" transform="translate(131,26)"/>
<path d="M0 0 C2.536875 -0.103125 5.07375 -0.20625 7.6875 -0.3125 C8.47729248 -0.35802002 9.26708496 -0.40354004 10.08081055 -0.45043945 C14.17605548 -0.53069776 15.6104745 -0.30770971 18.95703125 2.3359375 C21.33909132 5.44218027 22 7.09166671 22 11 C20.67507024 14.28077846 19.499964 16.500036 17 19 C18.98 22.96 20.96 26.92 23 31 C19.875 31.625 19.875 31.625 16 31 C13.25048211 27.70773563 10 23.42493518 10 19 C8.68 19 7.36 19 6 19 C6 22.96 6 26.92 6 31 C4.02 31 2.04 31 0 31 C0 20.77 0 10.54 0 0 Z M6 5 C6 7.64 6 10.28 6 13 C8.64 13 11.28 13 14 13 C14.66 11.35 15.32 9.7 16 8 C14.94369738 6.35429841 14.94369738 6.35429841 13 5 C9.37464024 4.7496423 9.37464024 4.7496423 6 5 Z " fill="#081427" transform="translate(175,17)"/>
<path d="M0 0 C4.95 0 9.9 0 15 0 C20 5 20 5 21.0625 8.4375 C20.98541095 12.83157589 19.78058336 14.66329997 17 18 C13.57067929 19.71466036 9.78283935 19.05404056 6 19 C6 22.96 6 26.92 6 31 C4.02 31 2.04 31 0 31 C0 20.77 0 10.54 0 0 Z M6 5 C6 7.64 6 10.28 6 13 C8.31 13 10.62 13 13 13 C14.12516085 11.16715557 14.12516085 11.16715557 15 9 C14.67 8.01 14.34 7.02 14 6 C11.29120665 4.64560332 8.99066732 4.93498549 6 5 Z " fill="#081426" transform="translate(66,17)"/>
<path d="M0 0 C4.88436571 4.36475233 5.02631689 6.18421824 6 13 C0.72 13 -4.56 13 -10 13 C-9.01 13.99 -8.02 14.98 -7 16 C-5.9275 15.649375 -4.855 15.29875 -3.75 14.9375 C0.92307692 13.76923077 0.92307692 13.76923077 4 15 C3.43170883 18.29608879 2.5894111 19.87820264 0 22 C-4.14589985 23.22668947 -7.84081142 23.45359553 -11.875 21.875 C-15.46013409 18.7116464 -16.85223661 16.35449778 -17.375 11.5625 C-16.95647878 7.58654841 -16.25188615 5.30276635 -14 2 C-9.46619868 -1.26855444 -5.21459349 -1.92060131 0 0 Z M-10 6 C-10 6.66 -10 7.32 -10 8 C-7.03 8 -4.06 8 -1 8 C-2.31200404 6.64567325 -3.64631404 5.31266518 -5 4 C-6.84046388 4 -8.39629594 5.17228177 -10 6 Z " fill="#081427" transform="translate(248,26)"/>
<path d="M0 0 C4.88436571 4.36475233 5.02631689 6.18421824 6 13 C0.72 13 -4.56 13 -10 13 C-9.01 13.99 -8.02 14.98 -7 16 C-5.9275 15.649375 -4.855 15.29875 -3.75 14.9375 C0.92307692 13.76923077 0.92307692 13.76923077 4 15 C3.43170883 18.29608879 2.5894111 19.87820264 0 22 C-4.14589985 23.22668947 -7.84081142 23.45359553 -11.875 21.875 C-15.46013409 18.7116464 -16.85223661 16.35449778 -17.375 11.5625 C-16.95647878 7.58654841 -16.25188615 5.30276635 -14 2 C-9.46619868 -1.26855444 -5.21459349 -1.92060131 0 0 Z M-10 6 C-10 6.66 -10 7.32 -10 8 C-7.03 8 -4.06 8 -1 8 C-2.31200404 6.64567325 -3.64631404 5.31266518 -5 4 C-6.84046388 4 -8.39629594 5.17228177 -10 6 Z " fill="#081427" transform="translate(168,26)"/>
<path d="M0 0 C2.98399169 2.41945272 4.07455706 4.22994577 5.3125 7.875 C5.3125 12.44695407 4.90455915 15.56012317 2.25 19.3125 C-0.95417942 22.10763524 -2.62276618 22.82473676 -6.76171875 23.05078125 C-9.6867718 22.78378858 -11.4203503 21.68871976 -13.6875 19.875 C-14.265 19.483125 -14.8425 19.09125 -15.4375 18.6875 C-17.50626664 15.68778837 -17.80862691 12.428056 -17.6875 8.875 C-16.31155481 5.22874523 -14.76845666 2.31409069 -11.6875 -0.125 C-7.41776338 -1.54824554 -4.19737125 -1.75703913 0 0 Z M-10.6875 6.875 C-11.63608905 9.64779875 -11.84933365 11.29239885 -11.0625 14.125 C-9.76994275 16.08907723 -9.76994275 16.08907723 -7.25 16.75 C-4.44306583 17.14146351 -4.44306583 17.14146351 -1.6875 14.875 C-0.73891095 12.10220125 -0.52566635 10.45760115 -1.3125 7.625 C-2.60505725 5.66092277 -2.60505725 5.66092277 -5.125 5 C-7.93193417 4.60853649 -7.93193417 4.60853649 -10.6875 6.875 Z " fill="#081426" transform="translate(215.6875,26.125)"/>
<path d="M0 0 C0.85464844 -0.01417969 1.70929687 -0.02835938 2.58984375 -0.04296875 C5.23874285 0.20392706 6.82885385 0.76336319 9.0625 2.1875 C10.62024936 5.30299872 10.62730622 8.7919388 10.0625 12.1875 C8.45898922 14.25892461 7.59529551 15.10045822 4.9777832 15.52807617 C4.19749756 15.51236572 3.41721191 15.49665527 2.61328125 15.48046875 C1.76572266 15.47080078 0.91816406 15.46113281 0.04492188 15.45117188 C-1.27668945 15.4134668 -1.27668945 15.4134668 -2.625 15.375 C-3.51767578 15.36146484 -4.41035156 15.34792969 -5.33007812 15.33398438 C-7.53316166 15.29864079 -9.73502582 15.24930493 -11.9375 15.1875 C-12.04565225 13.41800905 -12.12316083 11.64662513 -12.1875 9.875 C-12.23390625 8.88886719 -12.2803125 7.90273438 -12.328125 6.88671875 C-11.9375 4.1875 -11.9375 4.1875 -10.109375 2.39453125 C-6.65715807 0.47594307 -3.8869613 0.02922527 0 0 Z " fill="#FBFAFE" transform="translate(26.9375,18.8125)"/>
<path d="M0 0 C1.98 0 3.96 0 6 0 C6 10.89 6 21.78 6 33 C4.02 33 2.04 33 0 33 C0 22.11 0 11.22 0 0 Z " fill="#081427" transform="translate(223,15)"/>
<path d="M0 0 C-0.33 1.98 -0.66 3.96 -1 6 C-2.98 6.66 -4.96 7.32 -7 8 C-7.33 12.95 -7.66 17.9 -8 23 C-9.98 23 -11.96 23 -14 23 C-14 15.74 -14 8.48 -14 1 C-11.69 1 -9.38 1 -7 1 C-4.53721199 -0.231394 -2.7204945 -0.07159196 0 0 Z " fill="#081426" transform="translate(103,25)"/>
<path d="M0 0 C2.31 0 4.62 0 7 0 C7 7.26 7 14.52 7 22 C4.69 22 2.38 22 0 22 C0 14.74 0 7.48 0 0 Z " fill="#081427" transform="translate(104,26)"/>
<path d="M0 0 C1.47906892 -0.02689216 2.95827483 -0.04634621 4.4375 -0.0625 C5.26121094 -0.07410156 6.08492187 -0.08570313 6.93359375 -0.09765625 C9 0 9 0 10 1 C9.28 7.72 9.28 7.72 8 9 C1.28 8.28 1.28 8.28 0 7 C-0.04092937 4.66702567 -0.04241723 2.33294775 0 0 Z " fill="#FAF9FE" transform="translate(15,37)"/>
<path d="M0 0 C0.99 0.33 1.98 0.66 3 1 C3.33 1.99 3.66 2.98 4 4 C3.67 4.66 3.34 5.32 3 6 C1.35 6 -0.3 6 -2 6 C-2.33 5.01 -2.66 4.02 -3 3 C-2.01 2.01 -1.02 1.02 0 0 Z " fill="#081427" transform="translate(107,17)"/>
</svg>
